<?xml version="1.0" encoding="utf-8"?>
<!-- Generator: Adobe Illustrator 24.1.0, SVG Export Plug-In . SVG Version: 6.00 Build 0)  -->
<svg version="1.1" xmlns="http://www.w3.org/2000/svg" xmlns:xlink="http://www.w3.org/1999/xlink" x="0px" y="0px"
	 viewBox="0 0 600 600" style="enable-background:new 0 0 600 600;" xml:space="preserve">
<style type="text/css">
	.st0{fill:#EDB13E;}
	.st1{fill:#D48064;}
	.st2{fill:#18B758;}
	.st3{fill:#D3F76C;}
	.st4{display:none;}
	.st5{display:inline;}
	.st6{fill:none;stroke:#EDB13E;stroke-width:6.1294;stroke-miterlimit:10;}
	.st7{fill:#18B758;stroke:#D3F76C;stroke-width:6.1294;stroke-miterlimit:10;}
	.st8{fill:none;stroke:#D48064;stroke-width:6.1294;stroke-miterlimit:10;}
	.st9{fill:#FFFFFF;}
	.st10{font-family:'Helvetica-Bold';}
	.st11{font-size:93.6786px;}
</style>
<g id="Logo_1">
	<g>
		<g>
			<g>
				<path class="st0" d="M-530.52,215.51c-4.95,0-13.05,0-18,0h-99.77c-4.95,0-9,4.05-9,9v122.76c0,4.95,4.05,9,9,9h99.77
					c4.95,0,9-4.05,9-9v-52.38c0-4.95,4.05-9,9-9h122.76c4.95,0,9-4.05,9-9v-52.38c0-4.95-4.05-9-9-9H-530.52z"/>
			</g>
			<g>
				<path class="st1" d="M-530.52,97.74c-4.95,0-9,4.05-9,9v99.77c0,4.95,4.05,9,9,9h52.38c4.95,0,9,4.05,9,9v122.76
					c0,4.95,4.05,9,9,9h52.38c4.95,0,9-4.05,9-9V224.51c0-4.95,0-13.05,0-18v-99.77c0-4.95-4.05-9-9-9H-530.52z"/>
			</g>
			<g>
				<path class="st2" d="M-389.76,215.51c-4.95,0-9,4.05-9,9v52.38c0,4.95-4.05,9-9,9h-122.76c-4.95,0-9,4.05-9,9v52.38
					c0,4.95,4.05,9,9,9h122.76c4.95,0,13.05,0,18,0h99.77c4.95,0,9-4.05,9-9V224.51c0-4.95-4.05-9-9-9H-389.76z"/>
			</g>
			<g>
				<path class="st3" d="M-460.14,356.27c-4.95,0-9-4.05-9-9v-52.38c0-4.95-4.05-9-9-9h-52.38c-4.95,0-9,4.05-9,9v52.38
					c0,4.95,0,13.05,0,18v52.38c0,4.95,0,13.05,0,18v29.39c0,4.95,4.05,9,9,9h122.76c4.95,0,9-4.05,9-9v-99.77c0-4.95-4.05-9-9-9
					H-460.14z"/>
			</g>
		</g>
	</g>
</g>
<g id="Logo_2" class="st4">
	<g class="st5">
		<g>
			<polygon class="st6" points="423.72,261.11 331.92,261.11 331.92,169.3 221.83,169.3 221.83,261.11 130.03,261.11 130.03,371.19 
				221.83,371.19 221.83,463 331.92,463 331.92,371.19 423.72,371.19 			"/>
			<polygon class="st7" points="445.92,241.06 354.12,241.06 354.12,149.25 244.03,149.25 244.03,241.06 152.23,241.06 
				152.23,351.14 244.03,351.14 244.03,442.95 354.12,442.95 354.12,351.14 445.92,351.14 			"/>
			<polygon class="st8" points="469.97,217.47 378.17,217.47 378.17,125.66 268.08,125.66 268.08,217.47 176.28,217.47 
				176.28,327.55 268.08,327.55 268.08,419.36 378.17,419.36 378.17,327.55 469.97,327.55 			"/>
		</g>
		<rect x="8.87" y="508.99" class="st2" width="582.26" height="84.45"/>
		<text transform="matrix(1 0 0 1 150.8157 585.5651)" class="st9 st10 st11">HEALEVATE</text>
	</g>
</g>
</svg>
